<svg width="706" height="482" viewBox="0 0 706 482" fill="none" xmlns="http://www.w3.org/2000/svg">
<path d="M715.083 161.955C715.083 161.955 702.901 124.635 694.513 97.2108C686.125 69.7867 692.227 65.9701 683.085 51.5039C673.943 37.0376 673.943 5.79695 667.863 1.22625C661.783 -3.34444 663.292 31.6899 657.189 43.1167C651.087 54.5434 654.149 91.109 649.578 100.25C645.007 109.392 643.476 131.491 643.476 131.491C643.476 131.491 632.802 135.308 626.722 134.531C620.643 133.754 624.437 145.957 617.58 155.099C612.309 161.717 606.441 167.837 600.049 173.381C600.049 173.381 597.764 195.481 592.438 205.376C587.113 215.272 587.09 228.23 584.805 243.473C582.519 258.716 583.296 271.651 578.725 265.572C574.154 259.493 575.662 248.044 575.662 248.044C575.662 248.044 566.52 246.513 566.52 238.148V209.193C566.52 209.193 554.338 186.339 550.521 167.302C546.704 148.265 549.012 129.96 543.664 128.452C538.316 126.943 542.156 165.017 537.584 171.096C533.013 177.175 522.339 203.091 521.585 214.518C520.831 225.944 523.094 245.004 520.054 251.083C517.014 257.162 509.38 267.858 510.157 289.18C510.934 310.502 513.951 321.929 506.34 332.602C498.729 343.274 485.77 354.701 484.239 366.128C482.707 377.554 479.668 393.552 479.668 393.552C479.668 393.552 476.628 375.269 472.811 361.557C469.547 350.705 465.732 340.026 461.383 329.562C461.383 329.562 451.486 293.751 444.63 283.078C437.773 272.406 441.59 246.513 436.241 244.227C430.893 241.942 426.345 272.428 426.345 272.428C426.345 272.428 411.1 301.361 408.814 318.135C406.529 334.91 405.02 346.314 405.02 346.314C405.02 346.314 376.062 350.13 370.736 361.557C365.411 372.984 358.531 385.804 358.531 385.804C358.531 385.804 349.389 388.798 346.349 396.888C343.118 404.167 339.296 411.168 334.921 417.822L316.637 417.959L300.637 419.582C300.637 419.582 257.211 439.259 251.886 440.767C246.56 442.275 245.783 420.085 241.212 414.44C236.641 408.795 236.641 393.62 236.641 393.62C236.641 393.62 231.316 395.791 230.539 406.852C229.79 415.181 228.523 423.455 226.744 431.626L193.215 448.4C193.215 448.4 147.503 457.542 137.606 459.827C127.71 462.112 82.7523 479.618 82.7523 479.618L59.8965 484.966C59.8965 484.966 60.3765 486.725 46.6629 487.685L0.951172 505.534H715.083V161.955Z" fill="url(#paint0_linear_5_169)"/>
<defs>
<linearGradient id="paint0_linear_5_169" x1="358.029" y1="749.837" x2="358.029" y2="211.547" gradientUnits="userSpaceOnUse">
<stop stop-color="#214244"/>
<stop offset="1" stop-color="#0A1E21"/>
</linearGradient>
</defs>
</svg>
