<svg width="1327" height="851" viewBox="0 0 1327 851" fill="none" xmlns="http://www.w3.org/2000/svg">
<path d="M1377.22 0C1377.22 0 1305.62 47.2381 1284.29 59.419C1262.97 71.5999 1214.19 70.0916 1214.19 70.0916H1191.34L1166.95 53.3171L1119.73 85.312L1057.24 131.019L993.245 82.2725L982.594 63.9897L958.207 68.5604L833.254 140.16L813.461 155.404H778.4L737.259 146.262L615.369 233.105L463.766 326.05L253 370L175.5 503.5L122.5 636.5L0 878.5L1355 924L1377.22 0Z" fill="url(#paint0_linear_5_146)"/>
<g style="mix-blend-mode:overlay" opacity="0.59">
<path d="M975.737 151.976L944.882 175.972L919.74 220.536V257.239L887.742 311.95L866.783 348.904L944.882 271.956L993.793 198.071L1057.24 131.019L993.245 82.2725C997.45 113.125 975.737 151.976 975.737 151.976Z" fill="#201352"/>
</g>
<g style="mix-blend-mode:overlay" opacity="0.59">
<path d="M1284.29 59.419C1282.43 60.4609 1280.5 61.3697 1278.51 62.1386C1278.51 62.1386 1250.01 98.2699 1229.44 114.267C1208.87 130.265 1147.16 174.829 1147.16 174.829C1147.16 174.829 1109.44 237.676 1084.3 252.531C1059.16 267.386 981.451 326.05 981.451 326.05L641.5 897L1392 881L1377.22 0C1377.22 0 1305.62 47.2381 1284.29 59.419Z" fill="#201352"/>
</g>
<defs>
<linearGradient id="paint0_linear_5_146" x1="925.819" y1="459.355" x2="925.819" y2="-44.29" gradientUnits="userSpaceOnUse">
<stop stop-color="#E1F6C1"/>
<stop offset="0.27" stop-color="#C5E9B5"/>
<stop offset="0.84" stop-color="#7FC897"/>
<stop offset="1" stop-color="#6BBF8E"/>
</linearGradient>
</defs>
</svg>
