<svg width="1728" height="810" viewBox="0 0 1728 810" fill="none" xmlns="http://www.w3.org/2000/svg">
<path d="M402.3 12.3171H438.869L528.784 0.136246L568.393 12.3171L717.368 125.076L792.792 157.071L1011.27 288.09L1273.89 354.845L1502.44 416.069L1649.5 498L1748.5 575.5V831.5L-79.5 841.5L-67 202.778C-67 202.778 44.2396 140.297 80.809 134.218C117.378 128.139 227.087 103.731 227.087 103.731L367.262 44.312L402.3 12.3171Z" fill="url(#paint0_linear_5_154)"/>
<g style="mix-blend-mode:overlay" opacity="0.37">
<path d="M-14.4315 186.004L188.986 149.438L306.305 96.1208L396.22 36.7018L438.869 12.3171H402.3L367.262 44.312L227.087 103.731C227.087 103.731 117.378 128.116 80.809 134.218C44.2396 140.319 -67 202.778 -67 202.778V232.899L-14.4315 186.004Z" fill="#FFFEF7"/>
</g>
<g style="mix-blend-mode:overlay" opacity="0.32">
<path d="M1273.89 354.845L1011.27 288.09L792.792 157.071L717.368 125.076L642.264 68.2167L702.192 149.438L864.766 249.993C864.766 249.993 954.246 325.684 957.126 329.752C960.006 333.82 1308.92 364.238 1308.92 364.238L1273.89 354.845Z" fill="#201352"/>
</g>
<defs>
<linearGradient id="paint0_linear_5_154" x1="717.71" y1="710.879" x2="717.71" y2="141.828" gradientUnits="userSpaceOnUse">
<stop stop-color="#E1F6C1"/>
<stop offset="0.22" stop-color="#C5E2B4"/>
<stop offset="0.7" stop-color="#7FAF93"/>
<stop offset="1" stop-color="#4F8C7D"/>
</linearGradient>
</defs>
</svg>
