<svg width="1728" height="661" viewBox="0 0 1728 661" fill="none" xmlns="http://www.w3.org/2000/svg">
<path d="M1795 0.437988L1656.33 113.197C1656.33 113.197 1497.94 139.09 1471.2 137.559C1444.46 136.028 1412.48 155.842 1412.48 155.842L1267.78 222.894H1225.11L1121.51 201.549H1086.47L1006.08 232.035H966.474L948.99 239.645L916.694 218.323L861.337 195.469L848.789 181.757L803.901 177.187L786.073 158.904L755.537 164.983L685.713 200.04L649.143 212.221L560.782 230.504L481.541 267.742C481.541 267.742 285.834 334.236 244.922 340.201C204.01 346.165 93.0902 346.234 93.0902 346.234L-17.2809 370.23V684.534H1795V0.437988Z" fill="url(#paint0_linear_5_161)"/>
<g style="mix-blend-mode:overlay" opacity="0.08">
<path d="M709.78 237.36L654.492 260.213C654.492 260.213 635.064 302.492 614.494 319.632C593.924 336.773 515.071 369.91 515.071 369.91L454.503 435.042L353.937 571.821L313.413 684.534H477.45L596.301 437.328L687.724 361.911C687.724 361.911 728.865 310.491 751.126 302.492C773.388 294.494 795.352 287.638 811.763 278.496C828.173 269.355 837.27 253.357 865.314 256.785C865.314 256.785 877.519 244.216 908.74 247.644C939.962 251.072 948.875 239.645 948.875 239.645L916.58 218.323L861.223 195.47L848.675 181.757L803.786 177.187L785.959 158.904L760.04 199.652L709.78 237.36Z" fill="#201352"/>
</g>
<g style="mix-blend-mode:overlay" opacity="0.08">
<path d="M1142.35 205.845L1099.04 233.932L1071.61 281.924L1035.04 342.486L948.99 383.234L856.355 473.893L829.225 543.596L915.232 444.161L1027.32 385.907L1124.18 334.487L1187.03 276.211L1267.78 222.894H1225.11L1142.35 205.845Z" fill="#201352"/>
</g>
<defs>
<linearGradient id="paint0_linear_5_161" x1="923.848" y1="854.404" x2="923.848" y2="315.062" gradientUnits="userSpaceOnUse">
<stop stop-color="#6E9E92"/>
<stop offset="1" stop-color="#23484D"/>
</linearGradient>
</defs>
</svg>
