<svg width="1728" height="449" viewBox="0 0 1728 449" fill="none" xmlns="http://www.w3.org/2000/svg">
<path d="M1761.2 456.399C1761.2 456.399 1752.81 359.5 1747.94 343.457C1743.08 327.414 1731.95 293.957 1731.95 293.957C1731.95 293.957 1713.82 319.758 1709.64 328.237C1705.46 336.716 1690.83 347.068 1690.83 347.068C1690.83 347.068 1679.65 335.916 1676.86 324.763C1674.33 315.759 1671.27 306.907 1667.72 298.253C1667.72 298.253 1668.41 298.962 1664.22 305.932C1660.04 312.902 1656.57 313.588 1654.46 323.369C1653.23 329.188 1650.33 334.519 1646.1 338.704L1632.16 324.763L1622.4 326.157L1611.24 324.763C1611.24 324.763 1611.24 327.551 1604.98 317.907C1598.72 308.263 1599.38 294.185 1599.38 294.185L1595.2 280.245C1593.43 283.694 1591.34 286.962 1588.94 290.003C1585.44 294.185 1584.75 294.894 1582.65 303.944C1580.55 312.994 1569.42 324.877 1569.42 324.877L1531.05 335.322C1531.05 335.322 1522.69 324.169 1519.9 319.987C1517.11 315.805 1516.4 297.682 1516.4 297.682L1511.53 280.245L1501.77 253.072C1501.77 253.072 1493.5 267.47 1493.5 274.463C1493.5 281.456 1487.92 295.374 1484.36 298.87C1480.79 302.367 1480.86 319.781 1480.86 319.781L1468.36 329.517C1470.84 322.766 1470.84 315.356 1468.36 308.606C1464.18 297.453 1459.99 284.907 1459.99 284.907V233.287C1457.83 233.824 1435.82 264.86 1434.12 266.312C1432.43 267.764 1431.1 269.593 1430.23 271.652C1427.45 278.622 1427.44 291.169 1426.05 293.271C1424.66 295.374 1391.42 312.079 1391.42 312.079L1388.63 321.221C1388.63 321.221 1376.77 293.34 1369.09 289.226C1361.41 285.112 1355.15 288.518 1353.09 278.759C1351.04 269.001 1346.81 250.192 1346.81 250.192C1346.81 250.192 1339.15 244.616 1337.05 256.454C1334.95 268.292 1324.5 287.124 1324.5 287.124C1324.5 287.124 1318.24 292.7 1318.24 294.802C1318.24 296.905 1309.87 281.547 1309.87 281.547L1278.08 252.843C1278.08 252.843 1282.95 223.545 1278.08 222.86C1273.21 222.174 1266.22 234.012 1266.22 234.012C1266.22 234.012 1258.56 256.317 1252.98 264.681C1247.41 273.046 1247.41 300.927 1247.41 300.927L1234.86 310.068L1227.39 323.323C1227.39 323.323 1224.39 310.068 1223 307.966C1221.6 305.863 1207.25 302.39 1201.88 294.734C1198.54 289.907 1195.67 284.772 1193.31 279.399C1193.31 279.399 1181.17 235.7 1178.38 238.488C1175.59 241.276 1154.68 265.217 1154.68 265.217L1136.54 291.214L1127.13 299.602L1114.35 285.661C1114.35 285.661 1103.62 277.297 1098.66 273.823C1093.7 270.349 1076.69 252.912 1076.69 252.912C1076.69 252.912 1076.95 232.618 1072.76 222.905C1068.58 213.193 1068.95 195.664 1068.95 195.664C1068.95 195.664 1061.36 197.058 1060.49 204.028C1058.79 214 1056.22 223.804 1052.81 233.326C1050.52 238.926 1042.36 252.866 1041.54 256.34C1040.72 259.814 1033.41 282.141 1033.41 282.141V262.625L1025.31 255.654L1016.38 243.085C1016.38 243.085 1000.77 233.304 1001.22 229.83C1001.68 226.356 997.499 230.515 995.396 215.181C993.293 199.846 992.127 183.186 989.248 178.25C986.368 173.313 995.624 156.63 989.248 155.922C982.871 155.213 978.665 169.177 977.271 183.117C975.877 197.058 979.557 206.816 971.786 215.112C964.015 223.408 965.912 241.622 963.923 243.702C961.935 245.782 946.096 259.037 946.096 259.037L939.376 230.447C939.376 230.447 928.885 203.274 927.628 199.092C926.371 194.91 922.12 173.953 920.063 171.211C918.006 168.468 913.915 158.641 913.869 177.473C913.823 196.304 922.234 204.668 911.058 212.324C899.881 219.98 896.361 243.702 896.361 243.702L888.385 258.465L869.689 259.859L862.1 258.465V241.737L840.261 219.409C840.261 219.409 820.261 182.477 816.078 178.272C811.896 174.067 809.816 198.475 809.816 198.475L800.674 208.233C800.674 208.233 793.702 238.926 782.549 245.187C771.395 251.449 767.921 253.552 767.921 258.442C767.921 263.333 732.562 231.247 736.059 213.124C739.556 195.001 737.11 189.425 705.533 180.352C703.956 171.279 698.379 128.063 698.379 128.063C698.379 128.063 696.299 147.58 690.014 153.865C683.729 160.15 678.86 182.455 679.569 185.86C680.277 189.265 679.569 205.377 672.712 213.741C665.855 222.105 663.57 245.736 663.57 245.736L656.599 261.071C656.599 261.071 631.73 256.888 626.154 242.239C620.577 227.59 608.715 222.014 605.926 216.438C603.138 210.861 577.561 208.782 576.784 189.951C576.007 171.119 546.784 154.391 546.784 154.391C546.784 154.391 537.641 159.967 536.339 168.354C535.036 176.741 538.419 193.493 532.842 200.349C527.265 207.205 509.849 230.31 511.243 234.492C512.637 238.674 507.06 247.747 507.06 247.747C507.06 247.747 508.455 203.137 507.06 201.035C505.666 198.932 504.958 196.852 500.089 176.65C495.221 156.447 492.41 148.06 491.724 145.272C491.038 142.484 484.044 159.213 483.359 162.709C482.673 166.206 482.65 180.124 477.759 187.848C472.868 195.573 458.24 213.627 455.452 223.385C452.663 233.144 448.595 246.399 445.692 249.895C442.79 253.392 429.693 258.26 429.693 258.26C429.693 258.26 428.985 226.265 429.693 223.385C430.402 220.506 421.328 194.818 419.225 188.534C417.122 182.249 410.083 159.944 405.992 150.186C401.9 140.427 392.735 116.042 392.735 116.042C392.735 116.042 385.764 118.831 385.056 129.983C384.347 141.136 387.158 155.122 385.056 164.835C382.953 174.547 373.216 177.381 369.719 180.832C366.222 184.283 343.389 217.329 343.389 217.329L338.521 233.326L310.614 229.144C308.909 214.353 306.105 199.709 302.226 185.334C296.512 165.909 283.941 134.302 283.941 134.302C274.912 120.269 268.702 104.613 265.656 88.2069C261.085 61.9254 235.086 42.5 232.801 39.072C230.515 35.6439 215.659 0.221069 215.659 0.221069C215.659 0.221069 212.23 17.3612 203.088 27.6452C193.946 37.9293 195.088 55.0694 193.946 64.2108C192.803 73.3522 187.089 98.491 187.089 98.491L193.946 144.198C193.946 144.198 198.517 167.92 187.089 178.478C175.661 189.036 168.804 207.045 168.804 207.045L156.233 167.051L124.235 143.055L80.809 181.906L65.9527 184.191C65.9527 184.191 48.8108 151.054 47.668 147.626C46.5252 144.198 -1.47217 73.3522 -1.47217 73.3522V487H1761.2V456.399Z" fill="url(#paint0_linear_5_165)"/>
<defs>
<linearGradient id="paint0_linear_5_165" x1="734.876" y1="672.113" x2="734.876" y2="199.023" gradientUnits="userSpaceOnUse">
<stop stop-color="#3D6564"/>
<stop offset="1" stop-color="#0F2C30"/>
</linearGradient>
</defs>
</svg>
