<svg width="512" height="805" viewBox="0 0 512 805" fill="none" xmlns="http://www.w3.org/2000/svg">
<path d="M511.79 158.15C511.79 158.15 485.118 126.932 478.261 109.404C471.404 91.875 465.325 61.4113 444.754 53.8011C424.184 46.1909 399.317 36.2725 399.317 36.2725L366.267 11.8878L351.045 0.461105H332.76C326.524 5.73351 318.798 8.9291 310.659 9.60249C297.699 10.3795 262.661 27.1311 262.661 27.1311C262.661 27.1311 228.378 50.7387 222.275 53.8011C216.173 56.8635 169.707 70.5527 169.707 70.5527L101.139 92.652L8.96114 144.438L0.572998 890.909H511.79V158.15Z" fill="url(#paint0_linear_5_141)"/>
<g style="mix-blend-mode:overlay" opacity="0.59">
<path d="M391.043 43.1285C403.614 51.1273 435.612 79.6941 433.326 93.4062C431.041 107.118 399.317 129.972 399.317 129.972L385.329 163.109L325.904 191.676L228.561 830.909H511.791V158.15C511.791 158.15 485.118 126.932 478.261 109.404C471.404 91.875 465.325 61.4113 444.754 53.8011C424.184 46.1909 399.317 36.2725 399.317 36.2725L366.267 11.8878C366.267 11.8878 378.472 35.1298 391.043 43.1285Z" fill="#201352"/>
</g>
<g style="mix-blend-mode:overlay" opacity="0.37">
<path d="M236.766 69.0215L260.376 53.8011L285.517 27.1311L320.875 7.38571C317.606 8.66185 314.161 9.43247 310.659 9.67106C297.7 10.4481 262.661 27.1997 262.661 27.1997C262.661 27.1997 228.378 50.8073 222.275 53.8697C216.173 56.932 169.707 70.6213 169.707 70.6213L101.139 92.7206L142.28 89.6582L236.766 69.0215Z" fill="#FFFEF7"/>
</g>
<defs>
<linearGradient id="paint0_linear_5_141" x1="256.193" y1="342.509" x2="256.193" y2="-17.1589" gradientUnits="userSpaceOnUse">
<stop stop-color="#FFF9D1"/>
<stop offset="0.19" stop-color="#F6F8CC"/>
<stop offset="0.5" stop-color="#DEF5BF"/>
<stop offset="0.88" stop-color="#B6F1A9"/>
<stop offset="1" stop-color="#A9EFA2"/>
</linearGradient>
</defs>
</svg>
