<svg width="1001" height="653" viewBox="0 0 1001 653" fill="none" xmlns="http://www.w3.org/2000/svg">
<path d="M942.384 655.189L907.826 650.618C907.826 650.618 862.252 639.191 850.549 635.398C838.847 631.604 814.483 622.44 814.483 622.44L791.193 618.623L769.937 598.832L744.795 601.872C744.795 601.872 731.904 576.733 731.47 572.642C731.036 568.551 721.779 556.804 721.779 556.804C721.779 556.804 699.083 569.968 692.067 566.494C688.176 564.445 683.792 563.519 679.405 563.82L668.959 544.738C668.959 544.738 663.634 543.207 665.142 526.455C666.651 509.703 659.817 491.421 659.817 491.421L649.143 486.073L632.39 499.785C632.39 499.785 637.715 532.557 637.715 534.842C637.715 537.128 632.39 563.82 632.39 563.82H620.208L598.106 570.951L581.353 584.023L574.496 585.44L560.782 570.951C560.782 570.951 563.068 586.697 552.394 563.82C541.721 540.944 547.823 540.167 541.721 540.967C535.618 541.767 527.253 553.171 527.253 553.171L517.356 529.54H510.5L498.294 508.972C498.294 508.972 491.438 510.503 489.929 513.543C488.421 516.582 476.216 560.644 476.216 560.644C476.216 560.644 473.153 577.578 470.867 577.944C468.582 578.31 456.4 590.627 456.4 590.627L450.297 610.304L411.442 607.242L377.158 605.734L368.016 600.386L347.446 563.82L351.263 513.543L341.366 505.887C341.366 505.887 331.447 508.926 331.447 491.421C331.447 473.915 305.551 475.423 310.122 448.753C314.693 422.083 329.161 395.436 324.59 383.232C320.019 371.029 293.369 353.523 288.02 315.449C282.672 277.375 282.695 272.027 271.267 265.925C259.839 259.824 260.593 240.787 260.593 223.258C260.593 205.729 252.982 209.546 247.657 190.509C242.331 171.472 222.515 124.234 222.515 124.234C222.515 124.234 215.659 152.412 211.842 162.331C208.025 172.249 205.739 201.182 205.739 214.117C205.739 227.052 195.843 244.603 195.843 244.603C185.946 252.968 190.517 281.923 190.517 299.451C190.517 316.98 208.802 384.009 198.128 397.721C187.455 411.434 182.129 416.004 182.883 422.86C183.638 429.716 192.643 447.999 182.883 467.036C173.124 486.073 168.484 499.031 166.884 514.274C165.284 529.517 153.171 566.951 153.171 566.951C153.171 566.951 139.457 543.984 140.989 529.495C142.52 515.005 144.805 505.887 144.805 493.706C144.805 481.525 150.131 477.709 152.416 464.751C154.702 451.793 156.233 424.369 156.233 424.369C153.763 409.257 152.486 393.974 152.416 378.662C152.416 354.3 145.56 320.774 145.56 320.774C145.56 320.774 137.949 298.674 131.092 287.248C124.235 275.821 114.316 278.106 115.093 257.538C115.87 236.97 117.378 206.506 110.522 193.549C103.665 180.591 94.5225 178.328 93.7454 163.085C92.9683 147.842 101.379 118.909 93.7454 102.135C86.1115 85.3602 102.888 81.5665 93.7454 64.8149C84.6031 48.0633 76.992 50.3487 72.4209 38.1449C69.572 30.7209 64.8471 24.1619 58.7073 19.108V0.0710449C58.7073 0.0710449 49.565 3.11056 48.0337 19.108C46.5023 35.1054 40.4226 41.9615 41.1769 50.3487C41.9311 58.7359 50.3192 91.4849 37.3828 108.991C24.4464 126.496 20.6066 163.085 20.6066 163.085C20.6066 163.085 15.2812 207.261 13.7498 212.608C12.2185 217.956 4.60747 347.444 -5.28912 361.156C-15.1857 374.868 -25.8594 401.515 -25.8594 401.515L-37.2874 467.036V676.534H1000.1L977.239 658.685" fill="url(#paint0_linear_5_167)"/>
<defs>
<linearGradient id="paint0_linear_5_167" x1="481.404" y1="920.837" x2="481.404" y2="382.547" gradientUnits="userSpaceOnUse">
<stop stop-color="#214244"/>
<stop offset="1" stop-color="#0A1E21"/>
</linearGradient>
</defs>
</svg>
