<svg width="1728" height="661" viewBox="0 0 1728 661" fill="none" xmlns="http://www.w3.org/2000/svg">
<path d="M1027.32 253.357L786.073 224.791L600.78 181.369L540.212 121.95L490.684 102.524L419.076 35.4952L335.264 0.437988H272.798C272.798 0.437988 163.844 49.5729 134.132 53.778C104.419 57.983 52.7191 81.9563 52.7191 81.9563L-60.8975 121.95L-14.4314 192.407L-60.8975 700L1819.5 664.5L1537.5 627L1485.5 565.5L1379.5 483L1196.5 395L1027.32 253.357Z" fill="url(#paint0_linear_5_158)"/>
<g style="mix-blend-mode:overlay" opacity="0.08">
<path d="M467.073 229.361L419.076 248.787L110 396L-42 731.5L1574.5 683.5L1484.5 566L1378 483.5L1196 396L1027.32 253.357L786.073 224.79L600.78 181.369L540.212 121.95L502.5 158.904L467.073 229.361Z" fill="#201352"/>
</g>
<defs>
<linearGradient id="paint0_linear_5_158" x1="483.209" y1="746.992" x2="483.209" y2="224.653" gradientUnits="userSpaceOnUse">
<stop stop-color="#ABCDAC"/>
<stop offset="0.66" stop-color="#62958E"/>
<stop offset="1" stop-color="#3A767D"/>
</linearGradient>
</defs>
</svg>
